<?xml version="1.0" standalone="no"?>
<!DOCTYPE svg PUBLIC "-//W3C//DTD SVG 20010904//EN"
 "http://www.w3.org/TR/2001/REC-SVG-20010904/DTD/svg10.dtd">
<svg version="1.0" xmlns="http://www.w3.org/2000/svg"
 width="1024.000000pt" height="1024.000000pt" viewBox="0 0 1024.000000 1024.000000"
 preserveAspectRatio="xMidYMid meet">

<g transform="translate(0.000000,1024.000000) scale(0.100000,-0.100000)"
fill="#000000" stroke="none">
<path d="M4652 8268 c-9 -11 -37 -157 -49 -258 -8 -65 66 -96 94 -40 15 31 64
203 71 248 3 24 -1 37 -14 47 -24 18 -88 19 -102 3z"/>
<path d="M4071 8199 c-29 -18 -33 -24 -27 -51 8 -39 91 -216 113 -240 29 -32
103 -17 103 22 0 21 -47 153 -79 222 -13 25 -33 50 -47 57 -31 14 -23 15 -63
-10z"/>
<path d="M5095 7975 c-72 -96 -86 -119 -81 -140 4 -14 18 -31 33 -38 24 -11
28 -8 66 33 22 25 51 63 65 85 14 22 40 57 58 78 51 56 42 97 -22 97 -29 0
-40 -11 -119 -115z"/>
<path d="M3577 7862 c-9 -10 -17 -35 -17 -54 0 -42 5 -46 158 -123 91 -46 94
-47 114 -29 53 49 42 82 -38 124 -27 14 -73 39 -104 56 -77 44 -94 48 -113 26z"/>
<path d="M4360 7834 c-259 -55 -446 -186 -537 -374 -54 -112 -66 -172 -61
-306 4 -93 9 -120 36 -187 39 -96 117 -212 172 -260 51 -43 156 -95 268 -133
87 -29 83 -25 185 -148 24 -29 24 -29 63 -14 38 16 39 17 36 60 -7 88 -80 161
-208 207 -214 78 -314 155 -382 298 -32 68 -37 88 -40 171 -10 227 74 384 261
485 145 78 200 92 367 91 136 0 150 -2 227 -30 112 -42 185 -87 263 -164 104
-103 150 -209 150 -345 -1 -43 -8 -89 -19 -120 -63 -169 -73 -204 -73 -247 0
-49 34 -136 57 -145 12 -4 66 18 92 39 9 7 7 23 -8 65 -20 59 -15 110 15 158
8 11 26 54 42 95 23 63 28 90 27 170 0 102 -11 146 -66 260 -44 90 -186 233
-282 282 -151 78 -268 108 -420 107 -55 0 -129 -7 -165 -15z"/>
<path d="M5580 7653 c-268 -96 -295 -116 -236 -172 29 -27 31 -27 196 31 126
44 156 64 145 97 -14 44 -56 62 -105 44z"/>
<path d="M1330 7570 c-9 -5 -76 -29 -150 -53 -261 -86 -282 -102 -284 -215 -1
-75 4 -93 99 -312 60 -139 86 -209 68 -183 -6 9 -17 4 -40 -17 -18 -17 -37
-30 -42 -30 -6 0 -15 -9 -21 -19 -5 -11 -20 -23 -32 -27 -13 -3 -36 -22 -51
-40 -16 -19 -34 -34 -41 -34 -14 0 -78 -96 -121 -180 -40 -79 -55 -143 -54
-240 0 -90 28 -231 47 -238 6 -2 18 -25 27 -51 9 -27 25 -57 35 -66 11 -10 20
-28 20 -39 0 -12 10 -32 23 -46 12 -14 29 -45 37 -70 8 -25 20 -51 27 -58 7
-7 13 -21 13 -31 0 -10 10 -26 21 -37 12 -10 50 -77 86 -148 36 -71 71 -136
79 -143 8 -8 14 -23 14 -34 0 -10 9 -27 20 -36 11 -10 20 -27 20 -40 0 -12 4
-32 9 -45 5 -13 12 -35 15 -50 4 -16 11 -28 17 -28 14 0 31 -18 48 -52 8 -16
18 -28 23 -28 4 0 8 -22 8 -50 0 -42 3 -50 19 -50 14 0 21 -10 26 -37 3 -20
44 -112 91 -205 46 -92 84 -176 84 -185 0 -13 3 -14 8 -5 5 8 13 -6 22 -38 8
-28 19 -50 27 -50 7 0 13 -9 13 -19 0 -11 7 -26 15 -35 8 -8 15 -20 15 -26 0
-6 13 -25 30 -43 21 -23 30 -42 30 -67 0 -26 3 -31 10 -20 8 12 10 11 10 -7 0
-13 5 -23 10 -23 6 0 10 -18 10 -40 0 -29 4 -40 15 -40 9 0 18 -12 22 -30 3
-16 9 -30 14 -30 5 0 9 -7 9 -15 0 -18 60 -139 72 -143 4 -2 8 -10 8 -18 0 -8
4 -14 10 -14 5 0 12 -16 16 -35 3 -19 14 -44 24 -55 10 -12 21 -39 25 -61 4
-21 12 -39 19 -39 15 0 32 -35 42 -85 4 -24 9 -32 14 -24 8 11 30 -47 30 -78
0 -6 6 -18 13 -25 16 -17 38 -75 44 -115 3 -18 8 -33 12 -33 4 0 18 -24 30
-52 13 -29 36 -81 52 -116 16 -34 29 -69 29 -77 0 -8 7 -15 15 -15 8 0 37 -46
69 -110 39 -78 51 -110 41 -110 -21 0 -19 -9 20 -83 19 -36 35 -71 35 -78 0
-6 8 -19 18 -28 11 -9 25 -41 32 -71 7 -30 21 -62 30 -70 9 -8 20 -35 24 -60
10 -73 29 -130 43 -130 7 0 13 -9 13 -20 0 -11 5 -20 10 -20 6 0 10 -6 10 -14
0 -7 14 -28 31 -46 17 -17 35 -47 41 -66 5 -19 13 -34 18 -34 6 0 10 -7 10
-15 0 -24 22 -65 36 -65 16 0 24 -23 24 -76 0 -24 4 -44 10 -44 5 0 9 -8 8
-17 -4 -28 13 -103 22 -103 5 0 12 -19 16 -42 6 -38 8 -40 14 -18 6 23 7 21
14 -15 8 -43 31 -91 52 -113 24 -24 32 -46 38 -104 3 -31 16 -79 30 -107 15
-28 26 -57 26 -66 0 -8 5 -15 10 -15 6 0 10 -9 10 -20 0 -11 4 -20 9 -20 4 0
11 -26 14 -57 3 -32 11 -59 17 -61 5 -2 10 -12 10 -22 0 -10 5 -20 10 -22 6
-2 14 -29 17 -61 3 -31 9 -57 12 -57 4 0 20 -27 36 -60 17 -33 36 -60 43 -60
6 0 12 -9 12 -20 0 -11 7 -20 15 -20 8 0 15 -5 15 -12 0 -6 3 -8 7 -5 10 11
43 -24 43 -45 0 -11 7 -18 20 -18 12 0 20 -7 20 -16 0 -9 18 -36 40 -60 22
-24 40 -48 40 -54 0 -5 9 -10 20 -10 13 0 20 -7 20 -20 0 -13 7 -20 20 -20 13
0 20 -7 20 -20 0 -17 7 -20 49 -20 30 0 51 -5 54 -12 4 -10 8 -9 16 2 8 11 13
12 19 3 4 -7 18 -16 30 -20 31 -12 145 0 150 15 2 7 12 12 23 12 10 0 19 6 19
13 0 8 18 22 41 32 22 11 60 40 82 66 23 26 49 49 57 51 8 2 31 20 51 40 23
23 50 39 73 43 20 4 44 14 52 22 11 11 55 16 189 20 156 5 175 8 175 23 0 15
15 18 106 23 59 3 109 9 113 14 3 6 18 13 33 16 15 4 33 14 42 22 9 9 33 15
60 15 39 0 46 3 46 20 0 17 7 20 40 20 22 0 40 5 40 10 0 6 9 10 20 10 11 0
20 7 20 15 0 12 13 15 58 15 62 0 102 21 102 54 0 12 10 16 40 16 33 0 40 3
40 20 0 13 7 20 20 20 11 0 20 5 20 10 0 6 9 10 19 10 11 0 21 5 23 12 3 8 38
13 101 16 74 3 97 8 97 18 0 10 13 14 39 14 31 0 41 4 46 20 5 15 15 20 41 20
27 0 34 4 34 20 0 17 7 20 40 20 22 0 40 4 40 9 0 5 18 12 40 16 25 4 40 12
40 21 0 8 9 14 20 14 11 0 20 5 20 10 0 6 18 10 40 10 22 0 40 5 40 10 0 6 9
10 20 10 11 0 20 6 20 14 0 10 21 15 77 18 45 3 79 10 81 17 2 6 12 11 23 11
12 0 19 7 19 20 0 17 7 20 40 20 33 0 40 3 40 20 0 17 7 20 46 20 34 0 51 5
64 20 14 16 103 38 163 40 4 0 7 6 7 14 0 9 15 17 40 21 22 4 40 12 40 20 0
13 43 25 91 25 18 0 29 5 29 14 0 10 22 16 80 21 57 5 80 11 80 20 0 9 18 16
48 21 26 4 50 11 53 16 3 5 45 14 92 21 72 9 87 14 87 29 0 14 8 18 36 18 22
0 43 7 53 18 20 22 77 42 119 42 25 0 32 4 32 20 0 18 7 20 60 20 33 0 60 4
60 9 0 11 88 38 153 46 38 5 47 10 47 26 0 12 7 19 20 19 13 0 20 7 20 20 0
13 7 20 20 20 11 0 20 5 20 10 0 6 9 10 20 10 13 0 20 7 20 20 0 12 7 20 16
20 9 0 29 14 44 30 15 17 33 30 40 30 7 0 25 13 40 30 15 16 35 30 44 30 9 0
16 8 16 20 0 15 7 20 25 20 23 0 75 39 75 55 0 3 18 22 40 42 22 21 40 45 40
54 0 12 6 16 20 12 16 -4 20 0 20 17 0 13 5 20 13 17 11 -4 67 72 67 91 0 5 9
17 20 27 11 10 20 26 20 36 0 10 9 21 20 24 11 3 20 11 20 16 0 5 6 9 13 9 8
0 19 11 25 25 7 14 19 28 27 31 8 4 15 12 15 19 0 7 8 12 17 11 12 0 19 7 21
22 2 12 7 22 12 22 5 0 18 10 30 22 13 15 20 17 20 8 0 -8 19 5 43 28 23 23
50 42 59 42 8 0 21 7 28 15 7 8 16 15 21 15 5 0 28 12 52 27 23 15 112 62 197
106 85 44 163 87 172 95 26 22 33 77 15 105 l-15 24 -90 -45 c-99 -49 -182
-66 -182 -38 0 9 -3 16 -6 16 -17 0 -202 -80 -404 -174 -124 -58 -231 -106
-239 -106 -7 0 5 18 28 40 22 22 49 40 60 40 10 0 35 12 56 26 21 14 72 39
113 55 89 36 192 90 192 103 0 4 -6 6 -12 3 -7 -3 -21 -8 -30 -12 -11 -4 -18
-3 -18 5 0 7 -6 5 -16 -4 -8 -9 -20 -14 -25 -11 -5 4 -23 0 -41 -8 -18 -8 -53
-22 -78 -32 -25 -9 -68 -28 -95 -41 -28 -13 -56 -24 -63 -24 -6 0 -12 -3 -12
-7 0 -5 -19 -17 -43 -28 -23 -10 -54 -27 -68 -37 -14 -9 -46 -20 -70 -24 -41
-6 -197 -76 -209 -93 -3 -4 -33 -17 -67 -29 -34 -13 -130 -56 -212 -97 -155
-77 -196 -95 -341 -147 -47 -16 -92 -36 -100 -43 -21 -17 -80 -45 -96 -45 -7
0 -60 -22 -117 -50 -58 -27 -109 -50 -115 -50 -5 0 -15 -6 -21 -14 -15 -17
-163 -78 -273 -111 -87 -26 -119 -43 -55 -30 51 11 19 -11 -36 -24 -53 -13
-133 -47 -157 -67 -8 -7 -19 -13 -25 -14 -5 -1 -25 -8 -44 -16 -18 -8 -35 -14
-37 -14 -1 0 -15 -5 -31 -11 -25 -10 -26 -12 -11 -23 16 -11 12 -15 -30 -33
-67 -29 -119 -49 -179 -68 -28 -9 -113 -47 -189 -86 -76 -38 -143 -69 -150
-69 -6 0 -14 -7 -17 -15 -7 -17 -87 -55 -116 -55 -12 0 -21 -4 -21 -10 0 -5
-9 -10 -20 -10 -11 0 -20 4 -20 9 0 5 -20 -1 -45 -14 -24 -13 -64 -30 -87 -36
-37 -11 -40 -13 -18 -17 20 -4 10 -10 -45 -28 -38 -12 -88 -29 -110 -38 l-40
-15 40 -1 c22 -1 34 -4 28 -7 -7 -2 -13 -12 -13 -21 0 -11 3 -13 8 -5 4 6 24
11 45 10 l38 -1 -28 -15 c-15 -8 -30 -14 -33 -14 -3 -1 -11 -7 -18 -14 -7 -7
-21 -13 -30 -13 -15 1 -14 3 3 17 l20 16 -20 -8 c-11 -5 -38 -9 -60 -11 -22
-1 -30 0 -17 2 12 3 20 8 18 12 -2 4 10 8 26 9 33 3 45 9 35 19 -3 4 -40 -2
-82 -11 -42 -10 -71 -21 -66 -25 11 -6 -23 -26 -94 -55 -22 -9 -78 -35 -125
-58 -47 -22 -100 -41 -118 -41 -24 0 -31 -4 -27 -14 6 -17 -22 -41 -47 -42
-10 0 -18 -5 -18 -11 0 -6 -8 -8 -19 -4 -31 9 -89 -19 -206 -99 -16 -11 -45
-28 -65 -38 -19 -9 -30 -17 -25 -18 15 0 137 27 160 36 18 7 18 6 7 -8 -7 -9
-27 -20 -44 -24 -17 -3 -60 -19 -96 -35 -36 -16 -67 -27 -69 -25 -8 8 8 27 31
36 18 7 15 9 -15 9 -20 1 -66 -10 -102 -24 -36 -13 -95 -27 -130 -31 -60 -6
-65 -5 -72 15 -14 45 -8 80 16 101 24 20 256 138 363 185 l59 25 -7 48 c-6 45
-70 183 -240 512 -35 69 -153 305 -261 525 -109 220 -322 652 -475 960 -434
875 -656 1328 -730 1485 -38 80 -118 244 -178 365 -60 121 -133 270 -162 330
-68 144 -184 382 -423 865 -226 457 -472 959 -511 1043 -27 57 -43 67 -76 47z
m6510 -4815 c-14 -8 -38 -14 -55 -14 -29 1 -28 1 10 14 54 17 76 18 45 0z
m114 -3 c9 -15 -454 -227 -477 -219 -7 3 0 9 14 15 15 6 29 17 32 25 7 18 111
68 200 97 37 12 67 26 67 30 0 5 -15 11 -32 13 -18 2 -13 3 11 2 24 -2 55 3
70 10 58 29 107 40 115 27z m-827 -378 c-3 -3 -12 -4 -19 -1 -8 3 -5 6 6 6 11
1 17 -2 13 -5z m-48 -27 c-13 -6 -50 -23 -82 -39 -119 -59 -236 -106 -230 -92
3 8 12 14 20 14 9 0 38 14 65 30 27 17 53 28 57 25 5 -2 14 2 21 10 7 8 19 15
26 15 8 0 14 4 14 9 0 12 55 34 85 34 14 0 22 3 19 8 -3 5 3 6 12 2 15 -6 14
-8 -7 -16z m-994 -447 c-11 -5 -27 -9 -35 -9 -13 -1 -13 0 0 9 8 5 24 9 35 9
l20 0 -20 -9z m-85 -35 c0 -9 -111 -56 -123 -52 -7 3 -4 7 8 11 11 4 36 15 55
25 35 19 60 25 60 16z m-170 -85 c-8 -5 -19 -10 -25 -10 -5 0 -3 5 5 10 8 5
20 10 25 10 6 0 3 -5 -5 -10z m-80 -34 c0 -11 -19 -15 -25 -6 -3 5 1 10 9 10
9 0 16 -2 16 -4z m-630 -281 c-14 -8 -34 -14 -45 -14 -13 0 -8 5 15 14 46 18
61 18 30 0z m-84 -40 c-11 -8 -27 -15 -36 -15 -9 0 -21 -5 -28 -12 -6 -6 -15
-9 -18 -5 -4 4 13 16 37 27 52 23 72 25 45 5z m-112 -46 c-10 -4 -28 -8 -39
-8 -17 -1 -17 1 5 12 14 8 31 11 39 9 11 -4 10 -7 -5 -13z m-54 -29 c-8 -5
-22 -10 -31 -10 -9 0 -27 -8 -40 -18 -27 -21 -85 -43 -93 -35 -7 8 17 31 29
27 5 -2 33 7 60 21 50 24 107 36 75 15z"/>
<path d="M4184 7521 c-54 -40 -84 -75 -133 -158 -61 -103 -75 -155 -61 -220 8
-39 19 -58 40 -73 25 -18 59 -19 61 -1 0 3 2 47 5 96 6 128 31 174 166 312 34
36 39 45 28 58 -19 23 -63 18 -106 -14z"/>
<path d="M4649 7436 c-52 -18 -74 -36 -111 -92 l-33 -49 -91 4 c-127 4 -179
-26 -205 -122 -32 -118 117 -257 275 -257 53 0 54 0 60 -35 9 -44 128 -280
158 -312 35 -38 63 -45 98 -25 16 9 30 21 30 25 0 4 -16 33 -35 63 -19 30 -56
96 -81 147 -26 50 -55 104 -66 120 -17 24 -18 28 -4 33 9 3 22 4 29 1 6 -2 50
-76 96 -162 92 -172 109 -195 146 -195 29 0 65 32 65 58 0 11 -23 57 -51 103
-29 46 -76 126 -106 178 l-54 94 36 32 c49 45 98 156 99 221 0 69 -37 124
-107 159 -56 28 -94 31 -148 11z m110 -135 c36 -34 38 -57 11 -110 -19 -38
-85 -101 -105 -101 -12 0 -79 174 -68 177 4 2 31 16 58 33 28 16 55 29 61 29
7 1 26 -12 43 -28z m-319 -126 c34 -18 113 -112 107 -129 -5 -16 -104 -19
-139 -5 -38 16 -88 74 -88 104 0 43 64 59 120 30z"/>
<path d="M3300 7391 c-15 -28 -13 -46 8 -71 16 -19 36 -25 118 -36 144 -19
187 -18 209 6 25 28 13 68 -28 85 -28 11 -210 35 -273 35 -13 0 -28 -9 -34
-19z"/>
<path d="M5462 7214 c-24 -17 -30 -62 -10 -82 8 -8 59 -12 163 -12 163 0 175
4 175 51 0 49 -29 59 -175 59 -102 0 -135 -3 -153 -16z"/>
<path d="M3550 6980 c-96 -28 -203 -69 -222 -87 -35 -32 -8 -93 41 -93 40 0
282 87 304 109 17 17 18 21 3 48 -14 27 -36 44 -54 42 -4 0 -36 -9 -72 -19z"/>
<path d="M5377 6913 c-4 -3 -7 -21 -7 -39 0 -40 21 -53 120 -79 35 -9 86 -28
113 -41 62 -32 98 -29 111 9 7 19 7 34 0 45 -6 9 -73 38 -150 64 -137 46 -174
55 -187 41z"/>
<path d="M6351 6685 c-35 -31 -40 -45 -11 -38 12 3 17 10 13 17 -4 6 7 0 24
-14 18 -14 32 -29 33 -35 0 -5 8 -19 17 -30 17 -22 16 -19 -20 68 l-24 58 -32
-26z"/>
<path d="M3696 6574 c-102 -112 -114 -140 -74 -168 35 -25 64 -20 89 17 13 17
59 70 103 116 l80 84 -32 28 c-18 16 -41 29 -51 29 -12 0 -57 -42 -115 -106z"/>
<path d="M5080 6584 c-171 -70 -246 -99 -468 -183 -131 -49 -162 -68 -162 -96
0 -14 13 -39 28 -56 l28 -31 124 50 c69 28 244 96 390 152 146 56 275 108 288
116 14 9 22 24 22 43 0 30 -33 81 -53 81 -7 0 -95 -34 -197 -76z"/>
<path d="M6359 6645 c-3 -2 -15 -6 -27 -8 -21 -3 -72 -56 -130 -136 -24 -33
-29 -47 -19 -53 8 -6 6 -10 -10 -14 -40 -11 -236 -311 -346 -529 -36 -72 -147
-361 -147 -383 0 -5 -14 -42 -31 -83 -34 -81 -58 -195 -59 -274 0 -38 6 -60
25 -88 14 -20 30 -37 35 -37 6 0 10 -8 10 -17 1 -33 27 28 59 140 17 59 42
130 56 157 14 27 34 72 45 100 11 28 47 96 80 151 33 55 60 102 60 105 0 14
137 211 214 308 47 60 86 112 86 115 0 3 27 35 60 70 33 35 57 69 53 75 -3 6
-3 8 2 4 10 -10 36 18 38 41 0 11 5 18 9 15 4 -3 16 4 28 16 11 11 16 20 11
20 -6 0 -13 -4 -16 -10 -13 -20 -25 -9 -13 11 10 17 10 23 1 26 -7 3 -13 15
-13 28 0 25 -19 76 -32 86 -10 7 -12 48 -3 74 4 13 -1 28 -14 42 -21 22 -28
39 -13 29 5 -3 9 1 9 9 0 16 -1 17 -8 10z m-13 -105 c0 -12 -4 -16 -9 -11 -5
5 -6 14 -3 20 10 15 12 14 12 -9z"/>
<path d="M6733 6473 c-35 -14 -63 -30 -63 -35 0 -6 48 -89 106 -186 59 -98
138 -231 177 -297 38 -66 98 -165 132 -220 34 -55 88 -145 120 -200 31 -55 81
-136 109 -180 29 -44 87 -143 129 -221 80 -146 103 -220 76 -240 -18 -13 -192
-93 -289 -132 -340 -138 -771 -321 -960 -407 l-135 -61 3 -53 c3 -62 -12 -116
-42 -149 -29 -33 -89 -62 -127 -62 -62 0 -143 54 -184 124 -9 15 -22 11 -135
-37 -69 -30 -186 -75 -260 -102 -120 -42 -339 -128 -775 -305 -77 -31 -168
-71 -202 -88 -34 -18 -66 -32 -70 -32 -14 1 -61 83 -116 205 -30 66 -70 154
-90 195 -78 165 -120 260 -164 365 -45 112 -98 231 -228 520 -40 88 -91 204
-115 257 -23 53 -48 103 -57 109 -12 10 -26 7 -79 -19 -36 -18 -64 -38 -64
-47 0 -8 60 -137 134 -287 74 -150 164 -343 201 -428 93 -216 261 -583 395
-865 46 -96 102 -165 134 -165 13 0 97 32 187 71 90 39 207 88 259 109 52 21
178 73 280 115 102 42 239 97 305 121 66 25 164 65 217 91 l97 46 35 -31 c43
-38 84 -49 215 -62 162 -15 242 10 328 103 52 56 69 90 87 168 8 33 16 62 18
64 3 4 143 65 438 192 147 64 389 166 663 279 114 48 282 131 300 148 24 25
15 52 -58 181 -35 61 -71 126 -80 145 -18 35 -402 686 -532 900 -38 63 -107
186 -152 273 -45 86 -88 157 -94 157 -7 -1 -40 -12 -74 -27z"/>
<path d="M5315 6470 c-25 -11 -282 -111 -550 -214 -110 -43 -206 -84 -214 -91
-29 -29 16 -105 63 -105 13 0 70 21 127 46 112 50 412 168 545 214 45 15 91
33 103 39 30 16 29 70 -2 99 -25 23 -40 26 -72 12z"/>
<path d="M6410 6470 c0 -8 5 -22 10 -30 9 -13 10 -13 10 0 0 8 -5 22 -10 30
-9 13 -10 13 -10 0z"/>
<path d="M4138 6453 c-19 -22 -81 -143 -109 -214 -19 -49 -19 -53 -3 -70 10
-11 31 -19 49 -19 32 0 35 4 94 123 33 67 61 130 61 138 0 38 -68 69 -92 42z"/>
<path d="M6461 6417 c-1 -16 -5 -26 -11 -22 -5 3 -10 1 -10 -4 0 -13 10 -14
26 -3 6 4 7 17 3 32 l-7 25 -1 -28z"/>
<path d="M6601 6299 c-12 -17 -69 -81 -124 -142 -300 -329 -431 -525 -639
-952 -16 -33 -38 -76 -49 -95 -40 -69 -78 -156 -87 -196 -10 -46 4 -105 33
-133 15 -15 18 -14 41 12 13 15 26 40 30 55 10 47 118 275 150 317 16 22 50
69 75 105 135 198 290 379 429 500 163 142 213 184 270 225 30 21 57 40 59 42
2 1 -2 10 -9 18 -11 13 -15 13 -23 3 -6 -9 -7 -8 -3 5 4 11 -4 31 -19 51 -14
18 -44 74 -68 125 l-43 92 -23 -32z m124 -257 c-3 -3 -11 0 -18 7 -9 10 -8 11
6 5 10 -3 15 -9 12 -12z"/>
<path d="M5330 6274 c-109 -47 -190 -79 -300 -119 -36 -13 -110 -43 -165 -67
-55 -24 -128 -54 -162 -67 -68 -25 -81 -42 -58 -78 25 -38 55 -47 116 -34 l53
12 38 -44 c43 -51 89 -67 190 -67 213 1 393 155 307 264 -26 33 -18 45 56 80
58 27 75 48 75 93 0 28 -24 73 -38 73 -4 0 -54 -21 -112 -46z m-16 -189 c8
-23 -23 -49 -110 -90 -104 -49 -229 -81 -249 -65 -28 23 -17 48 28 64 303 114
320 118 331 91z"/>
<path d="M6705 5836 c-156 -127 -335 -298 -410 -394 -28 -35 -81 -103 -118
-150 -38 -48 -80 -107 -94 -132 -15 -25 -50 -81 -79 -125 -97 -150 -165 -282
-171 -335 -4 -35 -2 -50 6 -50 6 0 16 -10 20 -22 9 -22 9 -22 16 -3 47 143
240 411 421 585 95 92 312 259 458 354 139 90 213 149 208 166 -12 37 -95 170
-103 165 -5 -4 -6 0 -3 8 3 8 0 18 -5 22 -6 3 -9 11 -6 16 4 5 5 9 3 9 -2 -1
-66 -52 -143 -114z"/>
<path d="M3563 5682 c-10 -6 -9 -15 4 -37 8 -17 43 -93 77 -170 l62 -140 69
-8 c210 -23 393 -49 495 -71 63 -13 118 -22 122 -20 5 3 8 1 8 -4 0 -5 6 -9
13 -9 45 -2 293 -89 435 -154 23 -11 77 -31 120 -45 90 -30 219 -90 317 -149
39 -23 103 -60 142 -84 82 -47 197 -131 231 -168 58 -63 -14 96 -80 177 -93
113 -341 281 -665 451 -54 28 -103 55 -109 60 -7 5 -25 11 -42 12 -16 1 -28 5
-25 10 2 4 -3 7 -11 7 -9 0 -16 3 -16 8 0 13 -61 42 -89 42 -16 0 -40 9 -54
20 -14 11 -30 20 -36 20 -6 0 -28 9 -50 21 -22 11 -53 21 -70 21 -18 1 -28 5
-24 11 3 6 1 7 -6 3 -6 -4 -19 -2 -27 5 -8 6 -17 9 -21 6 -3 -4 -11 -1 -17 7
-12 14 -106 53 -146 60 -26 4 -40 8 -75 22 -11 4 -29 8 -40 9 -11 1 -105 21
-210 43 -226 49 -266 55 -282 44z"/>
<path d="M6978 5581 c-25 -16 -94 -57 -154 -91 -151 -87 -492 -361 -594 -479
-86 -98 -229 -294 -260 -355 -62 -123 -4 -87 240 149 150 145 320 276 528 407
385 242 393 248 380 271 -21 42 -80 127 -87 127 -4 0 -28 -13 -53 -29z"/>
<path d="M7095 5327 c-215 -115 -503 -307 -715 -478 -154 -123 -424 -366 -443
-397 -15 -24 -2 -22 32 5 19 15 95 57 170 94 75 36 208 111 296 165 162 99
547 293 753 379 81 34 112 52 112 64 0 9 -14 39 -30 65 -17 27 -42 70 -57 97
-14 27 -28 49 -32 49 -3 0 -42 -20 -86 -43z"/>
<path d="M3747 5160 c19 -41 43 -97 54 -123 10 -26 28 -66 39 -87 l20 -40 128
0 c193 0 402 -17 557 -45 147 -27 230 -44 255 -53 8 -3 26 -7 39 -8 13 -2 31
-6 40 -10 9 -4 21 -8 26 -9 6 -2 46 -17 90 -34 88 -36 212 -71 249 -71 13 0
39 -7 58 -15 30 -12 230 -65 246 -65 3 0 -10 16 -29 36 -58 61 -189 141 -210
129 -5 -4 -8 -1 -7 7 2 8 -19 20 -57 31 -33 11 -91 34 -130 53 -38 18 -115 50
-170 70 -310 114 -501 179 -585 200 -141 36 -473 96 -566 103 l-81 6 34 -75z"/>
<path d="M7195 4999 c-208 -91 -650 -304 -730 -353 -38 -24 -134 -75 -211
-113 -187 -93 -264 -147 -264 -186 0 -14 88 2 123 23 18 10 127 59 242 108
116 50 262 115 325 145 63 30 153 71 200 90 169 68 505 219 522 234 17 15 16
19 -10 64 -15 27 -34 49 -42 49 -8 -1 -78 -28 -155 -61z"/>
<path d="M3890 4814 c0 -5 104 -222 111 -230 6 -8 32 -6 91 7 113 24 388 40
658 39 239 -1 270 0 270 11 0 8 -48 25 -215 77 -214 66 -302 80 -570 89 -164
5 -345 9 -345 7z"/>
<path d="M4977 4595 c-27 -7 -88 -16 -135 -20 -95 -7 -208 -21 -492 -61 -277
-38 -290 -40 -294 -45 -5 -6 47 -136 60 -149 7 -7 86 4 260 39 477 95 726 120
1009 104 162 -10 275 -7 275 6 0 4 -14 17 -31 30 -21 15 -60 28 -119 37 -49 8
-140 26 -202 40 -133 30 -263 38 -331 19z"/>
<path d="M5035 4380 c-188 -21 -278 -33 -365 -50 -195 -39 -495 -101 -507
-105 -8 -3 -4 -18 13 -49 14 -25 38 -81 52 -124 l27 -79 145 49 c277 92 767
218 849 218 17 0 72 9 123 19 51 11 147 29 213 41 66 11 134 26 152 31 37 12
35 32 -5 47 -32 11 -597 13 -697 2z"/>
<path d="M5610 4240 c-69 -10 -178 -32 -244 -49 -65 -17 -127 -31 -138 -31
-34 0 -467 -117 -603 -163 -330 -112 -326 -111 -319 -127 4 -8 16 -40 28 -70
30 -79 32 -81 64 -65 162 79 521 207 1072 382 184 59 310 111 310 129 0 17
-11 17 -170 -6z"/>
<path d="M8575 3251 c-136 -47 -190 -69 -182 -77 8 -8 176 49 252 86 81 38 62
36 -70 -9z"/>
<path d="M8338 3156 c-30 -12 -292 -137 -297 -142 -2 -2 -2 -6 1 -10 3 -3 48
17 99 44 106 55 187 85 273 101 33 6 61 12 63 14 8 8 -118 1 -139 -7z"/>
<path d="M8457 3124 c-3 -3 -25 -8 -48 -10 -23 -2 -45 -7 -48 -10 -10 -11 113
6 123 16 7 7 5 10 -5 10 -9 0 -18 -3 -22 -6z"/>
<path d="M8288 3083 c7 -3 16 -2 19 1 4 3 -2 6 -13 5 -11 0 -14 -3 -6 -6z"/>
<path d="M7965 2979 c-33 -16 -66 -29 -72 -29 -7 0 -13 -4 -13 -9 0 -5 -24
-17 -52 -27 -59 -19 -123 -46 -243 -104 -44 -21 -99 -46 -122 -55 -49 -20 -59
-39 -12 -23 42 15 48 3 7 -18 -18 -9 -37 -23 -41 -31 -5 -7 -13 -10 -19 -7 -7
4 -8 2 -4 -4 5 -8 26 -1 69 22 34 19 78 37 97 41 19 4 40 12 47 17 6 5 24 14
40 19 26 8 25 9 -9 5 -21 -3 -40 -1 -43 5 -4 5 2 6 11 2 12 -4 15 -3 10 5 -5
8 0 12 13 12 12 0 21 4 21 8 0 13 69 48 160 80 81 29 194 83 214 103 21 19 -2
15 -59 -12z m-385 -204 c0 -5 -69 -35 -79 -34 -5 0 68 38 77 39 1 0 2 -2 2 -5z"/>
<path d="M8120 2989 c0 -5 5 -7 10 -4 6 3 10 8 10 11 0 2 -4 4 -10 4 -5 0 -10
-5 -10 -11z"/>
<path d="M7958 2913 c7 -3 16 -2 19 1 4 3 -2 6 -13 5 -11 0 -14 -3 -6 -6z"/>
<path d="M7700 2822 c-25 -8 -39 -17 -33 -19 7 -3 31 5 55 16 51 23 41 25 -22
3z"/>
<path d="M7715 2790 l-20 -9 20 0 c11 0 29 4 40 9 l20 9 -20 0 c-11 0 -29 -4
-40 -9z"/>
<path d="M7336 2700 c-32 -15 -62 -34 -66 -40 -4 -6 -11 -12 -16 -12 -5 0 -25
-7 -44 -15 -19 -8 -51 -21 -70 -28 -19 -7 -62 -27 -95 -43 -33 -16 -107 -47
-165 -68 -58 -21 -118 -45 -135 -54 -109 -60 -306 -154 -315 -153 -3 1 -17 -7
-30 -18 l-25 -19 31 9 c16 5 44 16 62 25 39 20 52 20 52 1 0 -8 -9 -15 -20
-15 -11 0 -20 -5 -20 -11 0 -7 9 -9 23 -6 67 16 170 46 175 51 8 9 -19 7 -57
-4 -62 -17 -44 -3 31 26 40 15 82 34 93 41 19 13 19 13 -1 13 -11 0 -24 -4
-30 -8 -5 -5 -36 -17 -69 -27 -33 -11 -66 -23 -72 -28 -8 -6 -13 -6 -13 0 0
11 235 133 256 133 18 0 166 50 180 62 7 5 54 29 105 54 52 25 142 68 201 97
59 29 108 55 108 60 0 11 -11 8 -74 -23z"/>
<path d="M7578 2703 c7 -3 16 -2 19 1 4 3 -2 6 -13 5 -11 0 -14 -3 -6 -6z"/>
<path d="M7204 2575 c-10 -8 -28 -15 -40 -15 -11 0 -29 -6 -39 -14 -18 -13
-18 -14 4 -25 20 -11 23 -10 28 8 3 12 11 21 19 21 7 0 28 9 46 20 18 11 26
20 17 20 -8 0 -24 -7 -35 -15z"/>
<path d="M7055 2495 c-63 -30 -108 -45 -134 -45 -14 -1 -39 -8 -56 -16 -16 -8
-21 -12 -10 -9 10 3 40 8 65 11 64 7 148 35 167 56 19 22 9 23 -32 3z"/>
<path d="M6868 2400 c-26 -10 -54 -25 -63 -34 -9 -9 -21 -16 -27 -16 -6 0 -9
-2 -6 -5 3 -4 37 9 74 27 82 39 78 37 73 42 -2 2 -25 -4 -51 -14z"/>
<path d="M6710 2320 c-9 -6 -10 -10 -3 -10 6 0 15 5 18 10 8 12 4 12 -15 0z"/>
<path d="M6330 2229 c0 -5 5 -7 10 -4 6 3 10 8 10 11 0 2 -4 4 -10 4 -5 0 -10
-5 -10 -11z"/>
<path d="M6190 2168 c-130 -62 -336 -153 -370 -163 -14 -4 -41 -18 -60 -31
-19 -13 -40 -24 -45 -24 -6 0 -33 -11 -61 -25 -49 -24 -30 -29 28 -6 15 6 36
8 45 5 14 -5 15 -4 4 4 -17 12 14 29 99 57 53 17 339 145 370 165 8 6 33 19
55 30 22 10 47 24 55 29 38 27 -21 6 -120 -41z"/>
<path d="M6384 2184 c-18 -14 -18 -14 6 -3 31 14 36 19 24 19 -6 0 -19 -7 -30
-16z"/>
<path d="M6320 2179 c-12 -8 -9 -9 10 -4 l25 6 -25 -15 c-14 -9 -33 -15 -43
-16 -17 0 -47 -22 -47 -33 0 -3 9 -3 20 0 11 3 20 9 20 13 0 4 12 11 27 15 34
8 55 24 47 36 -7 12 -16 11 -34 -2z"/>
<path d="M6164 2098 c-12 -10 -31 -18 -41 -18 -11 0 -28 -7 -39 -15 -10 -8
-26 -15 -34 -15 -8 0 -42 -14 -75 -30 -57 -29 -42 -32 20 -4 39 17 114 44 142
51 12 3 28 11 34 19 6 8 20 14 30 14 10 0 20 4 24 9 10 16 -37 7 -61 -11z"/>
<path d="M6045 2003 c-68 -17 -165 -52 -180 -65 -12 -11 45 1 60 13 6 4 48 17
95 29 83 21 134 41 100 38 -8 0 -42 -7 -75 -15z"/>
<path d="M5845 1976 c-48 -12 -95 -32 -95 -41 0 -5 97 23 135 40 37 17 25 17
-40 1z"/>
<path d="M5820 1918 c-16 -7 -20 -12 -12 -15 8 -3 21 2 30 11 19 18 17 19 -18
4z"/>
<path d="M5535 1870 c-3 -6 1 -7 9 -4 18 7 21 14 7 14 -6 0 -13 -4 -16 -10z"/>
<path d="M5464 1845 c-10 -8 -14 -14 -9 -14 6 0 19 6 29 14 11 8 15 15 10 15
-6 0 -19 -7 -30 -15z"/>
<path d="M5340 1779 c0 -5 5 -7 10 -4 6 3 10 8 10 11 0 2 -4 4 -10 4 -5 0 -10
-5 -10 -11z"/>
<path d="M5265 1746 c-28 -13 -115 -51 -195 -86 -147 -64 -196 -90 -171 -90
31 0 394 161 420 186 15 14 -11 9 -54 -10z"/>
<path d="M5318 1703 c7 -3 16 -2 19 1 4 3 -2 6 -13 5 -11 0 -14 -3 -6 -6z"/>
<path d="M5238 1673 c6 -2 18 -2 25 0 6 3 1 5 -13 5 -14 0 -19 -2 -12 -5z"/>
<path d="M5165 1620 c-3 -6 1 -7 9 -4 18 7 21 14 7 14 -6 0 -13 -4 -16 -10z"/>
<path d="M4520 1410 c-19 -11 -31 -19 -27 -20 11 0 67 29 67 35 0 7 -1 7 -40
-15z"/>
</g>
</svg>
